<svg width="18.000000" height="21.000000" viewBox="0 0 18 21" fill="none" xmlns="http://www.w3.org/2000/svg" xmlns:xlink="http://www.w3.org/1999/xlink">
	<desc>
			Created with Pixso.
	</desc>
	<defs>
		<clipPath id="clip1_527">
			<rect id="icon_user" width="18.000000" height="21.000000" fill="white" fill-opacity="0"/>
		</clipPath>
	</defs>
	<g clip-path="url(#clip1_527)">
		<path id="Vector" d="M14.2117 5.13098C14.2117 7.96474 11.8782 10.2619 9 10.2619C6.12158 10.2619 3.78833 7.96474 3.78833 5.13098C3.78833 2.29721 6.12158 0 9 0C11.8782 0 14.2117 2.29721 14.2117 5.13098ZM9.98315 9.1496Q9.50488 9.26195 9 9.26195Q8.49512 9.26195 8.01685 9.14961Q7.67969 9.07047 7.35571 8.93558Q6.97192 8.77574 6.63281 8.54916Q6.30347 8.32927 6.01636 8.04652Q5.677 7.71245 5.42749 7.32115Q5.24927 7.04187 5.1167 6.73346Q4.96777 6.38696 4.88647 6.02527Q4.78833 5.58916 4.78833 5.13098Q4.78833 4.67279 4.88647 4.23668Q4.96777 3.875 5.1167 3.5285Q5.24927 3.22009 5.42725 2.94083Q5.677 2.54951 6.01636 2.21542Q6.30347 1.93269 6.63281 1.71281Q6.97192 1.48621 7.35571 1.32637Q7.67969 1.1915 8.0166 1.11237Q8.49512 1 9 1Q9.50488 1 9.98315 1.11235Q10.3203 1.1915 10.644 1.32637Q11.0281 1.48621 11.3672 1.71278Q11.6963 1.93266 11.9836 2.21542Q12.323 2.54955 12.5725 2.94087Q12.7507 3.22012 12.8833 3.5285Q13.0322 3.87497 13.1135 4.23662Q13.2117 4.67276 13.2117 5.13098Q13.2117 5.58919 13.1135 6.02533Q13.0322 6.38698 12.8833 6.73346Q12.7507 7.04182 12.5725 7.32108Q12.323 7.7124 11.9836 8.04652Q11.6963 8.32925 11.3672 8.54913Q11.0281 8.77574 10.644 8.93558Q10.3203 9.07047 9.98315 9.1496ZM6.85815 11.6068C6.79956 11.587 6.74072 11.5668 6.68188 11.5465C6.18506 11.3754 5.67871 11.2011 5.16284 11.2846C2.23853 11.7575 0 14.3963 0 17.5806L0 18.2694C0 19.7775 0 21 2.61646 21L15.3835 21C18 21 18 19.7775 18 18.2694L18 17.5806C18 14.3963 15.7615 11.7575 12.8372 11.2846C12.324 11.2016 11.8201 11.3725 11.325 11.5404C11.2629 11.5613 11.2014 11.5822 11.1399 11.6026C10.4729 11.8233 9.72998 11.8558 8.96655 11.8558C8.20776 11.8558 7.5022 11.8237 6.85815 11.6068ZM4.60376 12.4445Q4.95435 12.3313 5.32251 12.2718Q5.48022 12.2462 5.71899 12.2977Q5.91357 12.3396 6.35645 12.492Q6.47705 12.5336 6.53882 12.5544Q7.08862 12.7396 7.77002 12.8077Q8.25146 12.8558 8.96655 12.8558Q9.69092 12.8558 10.1868 12.8072Q10.8911 12.7382 11.4541 12.552Q11.519 12.5304 11.646 12.4874Q12.0872 12.3378 12.2812 12.2968Q12.52 12.2463 12.6775 12.2718Q13.0457 12.3313 13.3962 12.4445Q13.9023 12.6078 14.3723 12.883Q14.6335 13.036 14.8735 13.2173Q15.3521 13.5791 15.7451 14.0537Q15.9949 14.3553 16.1968 14.6862Q16.4771 15.1457 16.6648 15.6618Q16.7859 15.9948 16.8633 16.3376Q17 16.9437 17 17.5806L17 18.2694Q17 18.9432 16.9668 19.2081Q16.9287 19.5128 16.8391 19.6483Q16.7595 19.7686 16.5447 19.8492Q16.1431 20 15.3835 20L2.61646 20Q1.85693 20 1.45532 19.8492Q1.24048 19.7686 1.16089 19.6483Q1.07129 19.5128 1.0332 19.2081Q1 18.9432 1 18.2694L1 17.5806Q1 16.9437 1.13672 16.3377Q1.21411 15.9948 1.33521 15.6618Q1.52295 15.1457 1.80322 14.6862Q2.00513 14.3553 2.25488 14.0537Q2.64795 13.5791 3.12646 13.2173Q3.36646 13.036 3.62769 12.883Q4.09766 12.6078 4.60376 12.4445Z" fill="#132529" fill-opacity="1.000000" fill-rule="evenodd"/>
	</g>
</svg>
