<svg width="15.000000" height="21.000000" viewBox="0 0 15 21" fill="none" xmlns="http://www.w3.org/2000/svg" xmlns:xlink="http://www.w3.org/1999/xlink">
	<desc>
			Created with Pixso.
	</desc>
	<defs>
		<clipPath id="clip1_529">
			<rect id="icon_basket" width="15.000000" height="21.000000" fill="white" fill-opacity="0"/>
		</clipPath>
	</defs>
	<g clip-path="url(#clip1_529)">
		<path id="Vector" d="M7.49487 0C5.29419 0 3.51001 1.92613 3.51001 4.30214L3.51001 5.59859L1.98804 5.59859C1.1875 5.59859 0.529053 6.27921 0.493896 7.14265L0.00146484 19.315C-0.0356445 20.2335 0.644043 21 1.49536 21L13.5046 21C14.3521 21 15.0303 20.2403 14.999 19.3259L14.583 7.15359C14.5532 6.28568 13.8931 5.59859 13.0886 5.59859L11.4795 5.59859L11.4795 4.30214C11.4795 1.92613 9.69531 0 7.49487 0ZM10.2832 6.89023L10.2832 10.6176L11.4795 10.6176L11.4795 6.89023L13.0886 6.89023C13.2495 6.89023 13.3816 7.02763 13.3875 7.20122L13.8035 19.3736C13.8098 19.5564 13.6741 19.7084 13.5046 19.7084L1.49536 19.7084C1.3252 19.7084 1.18921 19.5551 1.19653 19.3714L1.68921 7.19904C1.69629 7.02634 1.82788 6.89023 1.98804 6.89023L3.51001 6.89023L3.51001 10.6176L4.7063 10.6176L4.7063 6.89023L10.2832 6.89023ZM10.2832 5.59859L10.2832 4.30214C10.2832 2.63948 9.03467 1.29163 7.49487 1.29163C5.95483 1.29163 4.7063 2.63948 4.7063 4.30214L4.7063 5.59859L10.2832 5.59859Z" fill="#132529" fill-opacity="1.000000" fill-rule="evenodd"/>
	</g>
</svg>
