<svg width="90" height="90" viewBox="0 0 90 90" fill="none" xmlns="http://www.w3.org/2000/svg">
<rect x="89.998" y="42.2096" width="5.5125" height="27.7875" rx="2.75625" transform="rotate(89.9564 89.998 42.2096)" fill="#E9E8E8"/>
<rect x="27.7856" y="42.257" width="5.5125" height="27.7875" rx="2.75625" transform="rotate(89.9564 27.7856 42.257)" fill="#3E3D3D"/>
<rect x="42.2095" y="0.00222778" width="5.5125" height="27.7875" rx="2.75625" transform="rotate(-0.0436324 42.2095 0.00222778)" fill="#F4F2F2"/>
<rect x="42.2568" y="62.2147" width="5.5125" height="27.7875" rx="2.75625" transform="rotate(-0.0436324 42.2568 62.2147)" fill="#9A9797"/>
<rect x="82.5737" y="20.0845" width="5.5125" height="27.7875" rx="2.75625" transform="rotate(59.9564 82.5737 20.0845)" fill="#F4F2F2"/>
<rect x="28.7197" y="51.2318" width="5.5125" height="27.7875" rx="2.75625" transform="rotate(59.9564 28.7197 51.2318)" fill="#454444"/>
<rect x="65.082" y="4.63556" width="5.5125" height="27.7875" rx="2.75625" transform="rotate(29.9564 65.082 4.63556)" fill="#F4F2F2"/>
<rect x="34.0166" y="58.5368" width="5.5125" height="27.7875" rx="2.75625" transform="rotate(29.9564 34.0166 58.5368)" fill="#656464"/>
<rect x="20.0845" y="7.42599" width="5.5125" height="27.7875" rx="2.75625" transform="rotate(-30.0436 20.0845 7.42599)" fill="#242424"/>
<rect x="51.2314" y="61.2799" width="5.5125" height="27.7875" rx="2.75625" transform="rotate(-30.0436 51.2314 61.2799)" fill="#C4C2C2"/>
<rect x="4.63525" y="24.9178" width="5.5125" height="27.7875" rx="2.75625" transform="rotate(-60.0436 4.63525 24.9178)" fill="#2E2E2E"/>
<rect x="58.5366" y="55.983" width="5.5125" height="27.7875" rx="2.75625" transform="rotate(-60.0436 58.5366 55.983)" fill="#D9D9D9"/>
</svg>
